<?xml version="1.0" encoding="UTF-8"?>
<!DOCTYPE svg PUBLIC "-//W3C//DTD SVG 1.1//EN" "http://www.w3.org/Graphics/SVG/1.1/DTD/svg11.dtd">
<svg xmlns="http://www.w3.org/2000/svg" version="1.1" width="310px" height="310px" style="shape-rendering:geometricPrecision; text-rendering:geometricPrecision; image-rendering:optimizeQuality; fill-rule:evenodd; clip-rule:evenodd" xmlns:xlink="http://www.w3.org/1999/xlink">
<g><path style="opacity:0.814" fill="#030001" d="M 309.5,66.5 C 309.5,79.8333 309.5,93.1667 309.5,106.5C 304.691,126.069 297.025,144.569 286.5,162C 271.634,184.555 254.967,205.722 236.5,225.5C 211.549,251.116 185.882,276.116 159.5,300.5C 156.167,303.167 152.833,303.167 149.5,300.5C 123.118,276.116 97.451,251.116 72.5,225.5C 54.0328,205.722 37.3661,184.555 22.5,162C 11.9815,144.593 4.31486,126.093 -0.5,106.5C -0.5,93.1667 -0.5,79.8333 -0.5,66.5C 12.4452,27.928 39.4452,7.92801 80.5,6.5C 113.764,7.44272 138.431,22.4427 154.5,51.5C 176.521,14.4104 208.687,0.410442 251,9.5C 280.803,18.1128 300.303,37.1128 309.5,66.5 Z"/></g>
<g><path style="opacity:0.988" fill="#40161f" d="M 67.5,20.5 C 77.3247,19.3417 87.3247,19.1751 97.5,20C 98.056,20.3826 98.3893,20.8826 98.5,21.5C 97.1667,21.5 95.8333,21.5 94.5,21.5C 85.6822,20.5067 76.6822,20.1734 67.5,20.5 Z"/></g>
<g><path style="opacity:0.988" fill="#a5334c" d="M 245.5,21.5 C 245.5,21.8333 245.5,22.1667 245.5,22.5C 234.865,21.5964 224.198,21.2631 213.5,21.5C 213.5,21.1667 213.5,20.8333 213.5,20.5C 224.185,19.0761 234.852,19.4094 245.5,21.5 Z"/></g>
<g><path style="opacity:0.965" fill="#521a26" d="M 61.5,21.5 C 60.4863,22.6737 59.153,23.3404 57.5,23.5C 58.1834,21.8235 59.5168,21.1568 61.5,21.5 Z"/></g>
<g><path style="opacity:1" fill="#f34b70" d="M 94.5,21.5 C 97.8442,23.3185 101.511,24.3185 105.5,24.5C 107.042,25.3007 108.708,25.634 110.5,25.5C 110.842,26.3382 111.508,26.6716 112.5,26.5C 112.973,27.9063 113.973,28.573 115.5,28.5C 115.973,29.9063 116.973,30.573 118.5,30.5C 119.922,31.925 121.589,32.925 123.5,33.5C 125.167,35.8333 127.167,37.8333 129.5,39.5C 130.08,41.7488 131.413,43.4154 133.5,44.5C 134.08,46.7488 135.413,48.4154 137.5,49.5C 138.5,50.8333 139.5,52.1667 140.5,53.5C 140.5,54.1667 140.5,54.8333 140.5,55.5C 141.136,57.7946 142.469,59.4613 144.5,60.5C 144.427,62.0269 145.094,63.0269 146.5,63.5C 146.557,64.609 146.89,65.609 147.5,66.5C 147.427,68.0269 148.094,69.0269 149.5,69.5C 149.414,70.4959 149.748,71.3292 150.5,72C 153.039,72.7958 155.372,72.6291 157.5,71.5C 158.906,71.0269 159.573,70.0269 159.5,68.5C 161.408,67.5144 162.408,65.8477 162.5,63.5C 164.25,62.3406 165.25,60.674 165.5,58.5C 169.214,54.117 172.547,49.4503 175.5,44.5C 179.5,41.1667 183.167,37.5 186.5,33.5C 188.749,32.9202 190.415,31.5869 191.5,29.5C 193.027,29.573 194.027,28.9063 194.5,27.5C 200.775,25.0738 207.108,23.0738 213.5,21.5C 224.198,21.2631 234.865,21.5964 245.5,22.5C 248.789,23.3739 252.123,24.0405 255.5,24.5C 256.93,25.5375 258.597,26.2041 260.5,26.5C 260.973,27.9063 261.973,28.573 263.5,28.5C 264.833,29.1667 266.167,29.8333 267.5,30.5C 267.973,31.9063 268.973,32.573 270.5,32.5C 270.842,33.3382 271.508,33.6716 272.5,33.5C 273.262,35.2624 274.596,36.2624 276.5,36.5C 278.167,38.5 279.833,40.5 281.5,42.5C 282.757,45.4274 284.757,47.7607 287.5,49.5C 288.167,50.1667 288.833,50.8333 289.5,51.5C 289.609,54.8992 290.942,57.5659 293.5,59.5C 293.796,61.403 294.463,63.0697 295.5,64.5C 295.259,66.8984 295.926,68.8984 297.5,70.5C 297.635,82.185 297.302,93.8517 296.5,105.5C 295.566,106.568 295.232,107.901 295.5,109.5C 293.723,112.505 292.723,115.838 292.5,119.5C 291.542,121.302 290.875,123.302 290.5,125.5C 289.227,127.713 288.227,130.046 287.5,132.5C 286.094,132.973 285.427,133.973 285.5,135.5C 285.5,135.833 285.5,136.167 285.5,136.5C 284.094,136.973 283.427,137.973 283.5,139.5C 283.672,140.492 283.338,141.158 282.5,141.5C 281.326,142.514 280.66,143.847 280.5,145.5C 279.326,146.514 278.66,147.847 278.5,149.5C 276.75,150.659 275.75,152.326 275.5,154.5C 273.05,156.629 271.383,159.296 270.5,162.5C 263.68,170.803 257.347,179.47 251.5,188.5C 247.464,192.534 243.798,196.868 240.5,201.5C 237.427,203.569 235.094,206.236 233.5,209.5C 231.5,209.5 230.5,210.5 230.5,212.5C 226.434,215.563 223.101,219.229 220.5,223.5C 218.5,223.5 217.5,224.5 217.5,226.5C 216.167,226.5 215.5,227.167 215.5,228.5C 213.5,228.5 212.5,229.5 212.5,231.5C 211.833,231.5 211.5,231.833 211.5,232.5C 210.167,233.167 209.167,234.167 208.5,235.5C 206.5,236.833 204.833,238.5 203.5,240.5C 202.167,241.167 201.167,242.167 200.5,243.5C 198.833,244.5 197.5,245.833 196.5,247.5C 195.167,247.5 194.5,248.167 194.5,249.5C 192.5,249.5 191.5,250.5 191.5,252.5C 183.842,258.492 176.842,265.159 170.5,272.5C 168.5,272.5 167.5,273.5 167.5,275.5C 163.229,278.101 159.563,281.434 156.5,285.5C 155.448,285.649 154.448,285.483 153.5,285C 150.236,281.227 146.57,278.06 142.5,275.5C 141.167,274.833 140.167,273.833 139.5,272.5C 135.441,267.438 130.774,263.105 125.5,259.5C 125.5,257.5 124.5,256.5 122.5,256.5C 116.444,249.442 109.778,243.109 102.5,237.5C 101.5,235.833 100.167,234.5 98.5,233.5C 97.1667,230.167 94.8333,227.833 91.5,226.5C 89.1667,223.5 86.5,220.833 83.5,218.5C 81.9059,215.236 79.5725,212.569 76.5,210.5C 75.5,208.833 74.1667,207.5 72.5,206.5C 71.9202,204.251 70.5869,202.585 68.5,201.5C 67.8333,200.167 66.8333,199.167 65.5,198.5C 64.9202,196.251 63.5869,194.585 61.5,193.5C 61.1667,192.5 60.5,191.833 59.5,191.5C 59.573,189.973 58.9063,188.973 57.5,188.5C 56.8333,187.167 55.8333,186.167 54.5,185.5C 54.573,183.973 53.9063,182.973 52.5,182.5C 52.2624,180.596 51.2624,179.262 49.5,178.5C 49.2624,176.596 48.2624,175.262 46.5,174.5C 46.2624,172.596 45.2624,171.262 43.5,170.5C 43.573,168.973 42.9063,167.973 41.5,167.5C 41.6716,166.508 41.3382,165.842 40.5,165.5C 40.573,163.973 39.9063,162.973 38.5,162.5C 38.573,160.973 37.9063,159.973 36.5,159.5C 36.6716,158.508 36.3382,157.842 35.5,157.5C 35.573,155.973 34.9063,154.973 33.5,154.5C 32.6618,154.158 32.3284,153.492 32.5,152.5C 32.573,150.973 31.9063,149.973 30.5,149.5C 30.573,147.973 29.9063,146.973 28.5,146.5C 27.6334,142.671 25.9668,139.337 23.5,136.5C 23.6716,135.508 23.3382,134.842 22.5,134.5C 22.6567,133.127 22.49,131.793 22,130.5C 20.9179,128.382 19.7512,126.382 18.5,124.5C 18.0652,121.843 17.0652,119.509 15.5,117.5C 14.9667,113.035 13.9667,108.702 12.5,104.5C 12.5,103.167 12.5,101.833 12.5,100.5C 11.6039,90.5321 11.2705,80.5321 11.5,70.5C 13.0739,68.8984 13.7406,66.8984 13.5,64.5C 14.5375,63.0697 15.2041,61.403 15.5,59.5C 17.2451,57.9674 18.2451,55.9674 18.5,53.5C 20.2624,52.7377 21.2624,51.4044 21.5,49.5C 25.4718,45.1927 29.4718,40.8593 33.5,36.5C 35.7488,35.9202 37.4154,34.5869 38.5,32.5C 40.8525,31.6597 42.8525,30.3264 44.5,28.5C 47.3933,28.9689 49.3933,27.9689 50.5,25.5C 52.5648,25.4828 54.5648,25.1495 56.5,24.5C 68.9994,21.8519 81.666,20.8519 94.5,21.5 Z"/></g>
<g><path style="opacity:0.969" fill="#682030" d="M 245.5,22.5 C 245.5,22.1667 245.5,21.8333 245.5,21.5C 249.162,21.7234 252.495,22.7234 255.5,24.5C 252.123,24.0405 248.789,23.3739 245.5,22.5 Z"/></g>
<g><path style="opacity:0.965" fill="#4e1824" d="M 99.5,21.5 C 101.898,21.2594 103.898,21.9261 105.5,23.5C 103.102,23.7406 101.102,23.0739 99.5,21.5 Z"/></g>
<g><path style="opacity:0.953" fill="#752436" d="M 213.5,20.5 C 213.5,20.8333 213.5,21.1667 213.5,21.5C 207.108,23.0738 200.775,25.0738 194.5,27.5C 200.225,23.8104 206.559,21.4771 213.5,20.5 Z"/></g>
<g><path style="opacity:0.984" fill="#c43d5b" d="M 67.5,20.5 C 76.6822,20.1734 85.6822,20.5067 94.5,21.5C 81.666,20.8519 68.9994,21.8519 56.5,24.5C 56.5,24.1667 56.5,23.8333 56.5,23.5C 56.8333,23.5 57.1667,23.5 57.5,23.5C 59.153,23.3404 60.4863,22.6737 61.5,21.5C 63.6208,21.6747 65.6208,21.3414 67.5,20.5 Z"/></g>
<g><path style="opacity:0.98" fill="#bf3b58" d="M 94.5,21.5 C 95.8333,21.5 97.1667,21.5 98.5,21.5C 98.8333,21.5 99.1667,21.5 99.5,21.5C 101.102,23.0739 103.102,23.7406 105.5,23.5C 105.5,23.8333 105.5,24.1667 105.5,24.5C 101.511,24.3185 97.8442,23.3185 94.5,21.5 Z"/></g>
<g><path style="opacity:0.953" fill="#762536" d="M 56.5,23.5 C 56.5,23.8333 56.5,24.1667 56.5,24.5C 54.5648,25.1495 52.5648,25.4828 50.5,25.5C 52.1016,23.9261 54.1016,23.2594 56.5,23.5 Z"/></g>
<g><path style="opacity:0.957" fill="#7a2638" d="M 105.5,24.5 C 105.5,24.1667 105.5,23.8333 105.5,23.5C 107.403,23.7959 109.07,24.4625 110.5,25.5C 108.708,25.634 107.042,25.3007 105.5,24.5 Z"/></g>
<g><path style="opacity:0.98" fill="#3d141d" d="M 255.5,24.5 C 257.698,24.1201 259.365,24.7868 260.5,26.5C 258.597,26.2041 256.93,25.5375 255.5,24.5 Z"/></g>
<g><path style="opacity:0.969" fill="#892b3f" d="M 50.5,25.5 C 49.3933,27.9689 47.3933,28.9689 44.5,28.5C 46.1815,26.9925 48.1815,25.9925 50.5,25.5 Z"/></g>
<g><path style="opacity:0.957" fill="#6c2132" d="M 112.5,26.5 C 114.027,26.427 115.027,27.0937 115.5,28.5C 113.973,28.573 112.973,27.9063 112.5,26.5 Z"/></g>
<g><path style="opacity:0.957" fill="#6f2233" d="M 260.5,26.5 C 262.027,26.427 263.027,27.0937 263.5,28.5C 261.973,28.573 260.973,27.9063 260.5,26.5 Z"/></g>
<g><path style="opacity:0.957" fill="#722334" d="M 194.5,27.5 C 194.027,28.9063 193.027,29.573 191.5,29.5C 191.973,28.0937 192.973,27.427 194.5,27.5 Z"/></g>
<g><path style="opacity:0.965" fill="#621e2d" d="M 44.5,28.5 C 42.8525,30.3264 40.8525,31.6597 38.5,32.5C 39.8021,30.1782 41.8021,28.8449 44.5,28.5 Z"/></g>
<g><path style="opacity:0.961" fill="#7f273a" d="M 115.5,28.5 C 116.609,28.5569 117.609,28.8902 118.5,29.5C 118.5,29.8333 118.5,30.1667 118.5,30.5C 116.973,30.573 115.973,29.9063 115.5,28.5 Z"/></g>
<g><path style="opacity:0.965" fill="#43161f" d="M 118.5,30.5 C 118.5,30.1667 118.5,29.8333 118.5,29.5C 120.749,30.0798 122.415,31.4131 123.5,33.5C 121.589,32.925 119.922,31.925 118.5,30.5 Z"/></g>
<g><path style="opacity:0.961" fill="#6d2232" d="M 267.5,30.5 C 269.027,30.427 270.027,31.0937 270.5,32.5C 268.973,32.573 267.973,31.9063 267.5,30.5 Z"/></g>
<g><path style="opacity:0.961" fill="#922d43" d="M 191.5,29.5 C 190.415,31.5869 188.749,32.9202 186.5,33.5C 187.585,31.4131 189.251,30.0798 191.5,29.5 Z"/></g>
<g><path style="opacity:0.976" fill="#39141c" d="M 123.5,33.5 C 126.5,34.5 128.5,36.5 129.5,39.5C 127.167,37.8333 125.167,35.8333 123.5,33.5 Z"/></g>
<g><path style="opacity:0.969" fill="#431520" d="M 272.5,33.5 C 274.404,33.7376 275.738,34.7376 276.5,36.5C 274.596,36.2624 273.262,35.2624 272.5,33.5 Z"/></g>
<g><path style="opacity:0.961" fill="#922d43" d="M 38.5,32.5 C 37.4154,34.5869 35.7488,35.9202 33.5,36.5C 34.5846,34.4131 36.2512,33.0798 38.5,32.5 Z"/></g>
<g><path style="opacity:0.957" fill="#872a3e" d="M 186.5,33.5 C 183.167,37.5 179.5,41.1667 175.5,44.5C 178.167,39.8333 181.833,36.1667 186.5,33.5 Z"/></g>
<g><path style="opacity:0.961" fill="#7f273a" d="M 33.5,36.5 C 29.4718,40.8593 25.4718,45.1927 21.5,49.5C 24.1129,43.887 28.1129,39.5537 33.5,36.5 Z"/></g>
<g><path style="opacity:0.957" fill="#792538" d="M 129.5,39.5 C 131.587,40.5846 132.92,42.2512 133.5,44.5C 131.413,43.4154 130.08,41.7488 129.5,39.5 Z"/></g>
<g><path style="opacity:0.969" fill="#9e3149" d="M 281.5,42.5 C 284.243,44.2393 286.243,46.5726 287.5,49.5C 284.757,47.7607 282.757,45.4274 281.5,42.5 Z"/></g>
<g><path style="opacity:0.961" fill="#82283c" d="M 133.5,44.5 C 135.587,45.5846 136.92,47.2512 137.5,49.5C 135.413,48.4154 134.08,46.7488 133.5,44.5 Z"/></g>
<g><path style="opacity:0.953" fill="#762536" d="M 21.5,49.5 C 21.2624,51.4044 20.2624,52.7377 18.5,53.5C 18.7376,51.5956 19.7376,50.2623 21.5,49.5 Z"/></g>
<g><path style="opacity:0.953" fill="#7a2638" d="M 175.5,44.5 C 172.547,49.4503 169.214,54.117 165.5,58.5C 167.677,52.9927 171.01,48.3261 175.5,44.5 Z"/></g>
<g><path style="opacity:0.957" fill="#601e2c" d="M 140.5,53.5 C 141.906,53.9731 142.573,54.9731 142.5,56.5C 141.833,56.1667 141.167,55.8333 140.5,55.5C 140.5,54.8333 140.5,54.1667 140.5,53.5 Z"/></g>
<g><path style="opacity:0.957" fill="#8d2b41" d="M 289.5,51.5 C 291.195,53.8967 292.528,56.5634 293.5,59.5C 290.942,57.5659 289.609,54.8992 289.5,51.5 Z"/></g>
<g><path style="opacity:0.965" fill="#b03651" d="M 140.5,55.5 C 141.167,55.8333 141.833,56.1667 142.5,56.5C 143.674,57.5137 144.34,58.847 144.5,60.5C 142.469,59.4613 141.136,57.7946 140.5,55.5 Z"/></g>
<g><path style="opacity:0.953" fill="#6b2131" d="M 18.5,53.5 C 18.2451,55.9674 17.2451,57.9674 15.5,59.5C 15.7549,57.0326 16.7549,55.0326 18.5,53.5 Z"/></g>
<g><path style="opacity:0.961" fill="#712334" d="M 165.5,58.5 C 165.25,60.674 164.25,62.3406 162.5,63.5C 162.75,61.326 163.75,59.6594 165.5,58.5 Z"/></g>
<g><path style="opacity:0.969" fill="#4c1823" d="M 15.5,59.5 C 15.2041,61.403 14.5375,63.0697 13.5,64.5C 13.1201,62.302 13.7868,60.6354 15.5,59.5 Z"/></g>
<g><path style="opacity:0.969" fill="#4c1823" d="M 293.5,59.5 C 295.213,60.6354 295.88,62.302 295.5,64.5C 294.463,63.0697 293.796,61.403 293.5,59.5 Z"/></g>
<g><path style="opacity:0.957" fill="#7e273a" d="M 144.5,60.5 C 145.906,60.9731 146.573,61.9731 146.5,63.5C 145.094,63.0269 144.427,62.0269 144.5,60.5 Z"/></g>
<g><path style="opacity:0.961" fill="#621e2d" d="M 146.5,63.5 C 147.906,63.9731 148.573,64.9731 148.5,66.5C 148.167,66.5 147.833,66.5 147.5,66.5C 146.89,65.609 146.557,64.609 146.5,63.5 Z"/></g>
<g><path style="opacity:0.965" fill="#84293d" d="M 162.5,63.5 C 162.408,65.8477 161.408,67.5144 159.5,68.5C 159.75,66.326 160.75,64.6594 162.5,63.5 Z"/></g>
<g><path style="opacity:0.957" fill="#a0324a" d="M 147.5,66.5 C 147.833,66.5 148.167,66.5 148.5,66.5C 149.11,67.391 149.443,68.391 149.5,69.5C 148.094,69.0269 147.427,68.0269 147.5,66.5 Z"/></g>
<g><path style="opacity:0.965" fill="#5e1d2b" d="M 13.5,64.5 C 13.7406,66.8984 13.0739,68.8984 11.5,70.5C 11.2594,68.1016 11.9261,66.1016 13.5,64.5 Z"/></g>
<g><path style="opacity:0.957" fill="#631e2d" d="M 159.5,68.5 C 159.573,70.0269 158.906,71.0269 157.5,71.5C 157.427,69.9731 158.094,68.9731 159.5,68.5 Z"/></g>
<g><path style="opacity:0.965" fill="#5d1d2b" d="M 295.5,64.5 C 297.074,66.1016 297.741,68.1016 297.5,70.5C 295.926,68.8984 295.259,66.8984 295.5,64.5 Z"/></g>
<g><path style="opacity:0.961" fill="#7b2639" d="M 149.5,69.5 C 151.82,71.2261 154.487,71.8928 157.5,71.5C 155.372,72.6291 153.039,72.7958 150.5,72C 149.748,71.3292 149.414,70.4959 149.5,69.5 Z"/></g>
<g><path style="opacity:0.986" fill="#9a3047" d="M 11.5,70.5 C 11.2705,80.5321 11.6039,90.5321 12.5,100.5C 11.8333,99.5 11.1667,98.5 10.5,97.5C 10.1734,88.3178 10.5067,79.3178 11.5,70.5 Z"/></g>
<g><path style="opacity:0.969" fill="#551a27" d="M 10.5,97.5 C 11.1667,98.5 11.8333,99.5 12.5,100.5C 12.5,101.833 12.5,103.167 12.5,104.5C 11.0762,102.485 10.4095,100.152 10.5,97.5 Z"/></g>
<g><path style="opacity:0.973" fill="#611e2d" d="M 297.5,70.5 C 298.912,74.9211 299.579,79.5878 299.5,84.5C 299.198,90.5163 298.698,96.5163 298,102.5C 297.768,103.737 297.268,104.737 296.5,105.5C 297.302,93.8517 297.635,82.185 297.5,70.5 Z"/></g>
<g><path style="opacity:0.969" fill="#6c2232" d="M 295.5,109.5 C 295.277,113.162 294.277,116.495 292.5,119.5C 292.723,115.838 293.723,112.505 295.5,109.5 Z"/></g>
<g><path style="opacity:0.976" fill="#4a1823" d="M 15.5,117.5 C 17.0652,119.509 18.0652,121.843 18.5,124.5C 16.1663,122.824 15.1663,120.491 15.5,117.5 Z"/></g>
<g><path style="opacity:0.984" fill="#2f1217" d="M 292.5,119.5 C 292.975,122.082 292.308,124.082 290.5,125.5C 290.875,123.302 291.542,121.302 292.5,119.5 Z"/></g>
<g><path style="opacity:0.965" fill="#6c2232" d="M 18.5,124.5 C 19.7512,126.382 20.9179,128.382 22,130.5C 22.49,131.793 22.6567,133.127 22.5,134.5C 20.1034,131.691 18.7701,128.358 18.5,124.5 Z"/></g>
<g><path style="opacity:0.953" fill="#7f273a" d="M 287.5,132.5 C 287.573,134.027 286.906,135.027 285.5,135.5C 285.427,133.973 286.094,132.973 287.5,132.5 Z"/></g>
<g><path style="opacity:0.957" fill="#85293d" d="M 285.5,136.5 C 285.573,138.027 284.906,139.027 283.5,139.5C 283.427,137.973 284.094,136.973 285.5,136.5 Z"/></g>
<g><path style="opacity:0.957" fill="#66202f" d="M 23.5,136.5 C 25.9668,139.337 27.6334,142.671 28.5,146.5C 26.0332,143.663 24.3666,140.329 23.5,136.5 Z"/></g>
<g><path style="opacity:0.969" fill="#611e2d" d="M 282.5,141.5 C 282.843,143.483 282.176,144.817 280.5,145.5C 280.66,143.847 281.326,142.514 282.5,141.5 Z"/></g>
<g><path style="opacity:0.961" fill="#671f30" d="M 28.5,146.5 C 29.9063,146.973 30.573,147.973 30.5,149.5C 29.0937,149.027 28.427,148.027 28.5,146.5 Z"/></g>
<g><path style="opacity:0.961" fill="#6e2233" d="M 280.5,145.5 C 280.771,147.38 280.104,148.713 278.5,149.5C 278.66,147.847 279.326,146.514 280.5,145.5 Z"/></g>
<g><path style="opacity:0.961" fill="#82283c" d="M 30.5,149.5 C 31.9063,149.973 32.573,150.973 32.5,152.5C 31.0937,152.027 30.427,151.027 30.5,149.5 Z"/></g>
<g><path style="opacity:0.961" fill="#7b2638" d="M 278.5,149.5 C 278.25,151.674 277.25,153.341 275.5,154.5C 275.75,152.326 276.75,150.659 278.5,149.5 Z"/></g>
<g><path style="opacity:0.961" fill="#7e273a" d="M 33.5,154.5 C 34.9063,154.973 35.573,155.973 35.5,157.5C 34.0937,157.027 33.427,156.027 33.5,154.5 Z"/></g>
<g><path style="opacity:0.961" fill="#772537" d="M 275.5,154.5 C 274.617,157.704 272.95,160.371 270.5,162.5C 271.383,159.296 273.05,156.629 275.5,154.5 Z"/></g>
<g><path style="opacity:0.961" fill="#6a2130" d="M 36.5,159.5 C 37.9063,159.973 38.573,160.973 38.5,162.5C 37.0937,162.027 36.427,161.027 36.5,159.5 Z"/></g>
<g><path style="opacity:0.957" fill="#6e2233" d="M 38.5,162.5 C 39.9063,162.973 40.573,163.973 40.5,165.5C 39.0937,165.027 38.427,164.027 38.5,162.5 Z"/></g>
<g><path style="opacity:0.969" fill="#481621" d="M 41.5,167.5 C 42.9063,167.973 43.573,168.973 43.5,170.5C 42.0937,170.027 41.427,169.027 41.5,167.5 Z"/></g>
<g><path style="opacity:0.965" fill="#481721" d="M 43.5,170.5 C 45.2624,171.262 46.2624,172.596 46.5,174.5C 44.7376,173.738 43.7376,172.404 43.5,170.5 Z"/></g>
<g><path style="opacity:0.965" fill="#4b1823" d="M 46.5,174.5 C 48.2624,175.262 49.2624,176.596 49.5,178.5C 47.7376,177.738 46.7376,176.404 46.5,174.5 Z"/></g>
<g><path style="opacity:0.969" fill="#491722" d="M 49.5,178.5 C 51.2624,179.262 52.2624,180.596 52.5,182.5C 50.7376,181.738 49.7376,180.404 49.5,178.5 Z"/></g>
<g><path style="opacity:0.961" fill="#682030" d="M 270.5,162.5 C 268.587,166.262 266.421,169.929 264,173.5C 260.291,178.94 256.125,183.94 251.5,188.5C 257.347,179.47 263.68,170.803 270.5,162.5 Z"/></g>
<g><path style="opacity:0.973" fill="#37131a" d="M 52.5,182.5 C 53.9063,182.973 54.573,183.973 54.5,185.5C 53.0937,185.027 52.427,184.027 52.5,182.5 Z"/></g>
<g><path style="opacity:0.969" fill="#451620" d="M 57.5,188.5 C 58.9063,188.973 59.573,189.973 59.5,191.5C 58.0937,191.027 57.427,190.027 57.5,188.5 Z"/></g>
<g><path style="opacity:0.976" fill="#451620" d="M 61.5,193.5 C 63.5869,194.585 64.9202,196.251 65.5,198.5C 63.4131,197.415 62.0798,195.749 61.5,193.5 Z"/></g>
<g><path style="opacity:0.961" fill="#581b29" d="M 251.5,188.5 C 248.954,193.719 245.287,198.052 240.5,201.5C 243.798,196.868 247.464,192.534 251.5,188.5 Z"/></g>
<g><path style="opacity:0.969" fill="#4c1723" d="M 68.5,201.5 C 70.5869,202.585 71.9202,204.251 72.5,206.5C 70.4131,205.415 69.0798,203.749 68.5,201.5 Z"/></g>
<g><path style="opacity:0.965" fill="#531a26" d="M 240.5,201.5 C 238.906,204.764 236.573,207.431 233.5,209.5C 235.094,206.236 237.427,203.569 240.5,201.5 Z"/></g>
<g><path style="opacity:0.961" fill="#772437" d="M 233.5,209.5 C 232.833,210.833 231.833,211.833 230.5,212.5C 230.5,210.5 231.5,209.5 233.5,209.5 Z"/></g>
<g><path style="opacity:0.973" fill="#4c1823" d="M 76.5,210.5 C 79.5725,212.569 81.9059,215.236 83.5,218.5C 80.4275,216.431 78.0941,213.764 76.5,210.5 Z"/></g>
<g><path style="opacity:0.957" fill="#5c1c2b" d="M 230.5,212.5 C 227.899,216.771 224.566,220.437 220.5,223.5C 223.101,219.229 226.434,215.563 230.5,212.5 Z"/></g>
<g><path style="opacity:0.957" fill="#6d2132" d="M 220.5,223.5 C 219.833,224.833 218.833,225.833 217.5,226.5C 217.5,224.5 218.5,223.5 220.5,223.5 Z"/></g>
<g><path style="opacity:0.957" fill="#81283b" d="M 91.5,226.5 C 94.8333,227.833 97.1667,230.167 98.5,233.5C 95.8333,231.5 93.5,229.167 91.5,226.5 Z"/></g>
<g><path style="opacity:0.957" fill="#6c2132" d="M 217.5,226.5 C 217.167,227.5 216.5,228.167 215.5,228.5C 215.5,227.167 216.167,226.5 217.5,226.5 Z"/></g>
<g><path style="opacity:0.957" fill="#742436" d="M 215.5,228.5 C 214.833,229.833 213.833,230.833 212.5,231.5C 212.5,229.5 213.5,228.5 215.5,228.5 Z"/></g>
<g><path style="opacity:0.973" fill="#3a131c" d="M 211.5,232.5 C 211.5,234.5 210.5,235.5 208.5,235.5C 209.167,234.167 210.167,233.167 211.5,232.5 Z"/></g>
<g><path style="opacity:0.961" fill="#80283b" d="M 102.5,237.5 C 109.778,243.109 116.444,249.442 122.5,256.5C 115.222,250.891 108.556,244.558 102.5,237.5 Z"/></g>
<g><path style="opacity:0.976" fill="#341219" d="M 208.5,235.5 C 208.167,238.5 206.5,240.167 203.5,240.5C 204.833,238.5 206.5,236.833 208.5,235.5 Z"/></g>
<g><path style="opacity:0.976" fill="#39131b" d="M 203.5,240.5 C 203.5,242.5 202.5,243.5 200.5,243.5C 201.167,242.167 202.167,241.167 203.5,240.5 Z"/></g>
<g><path style="opacity:0.957" fill="#6f2233" d="M 196.5,247.5 C 196.167,248.5 195.5,249.167 194.5,249.5C 194.5,248.167 195.167,247.5 196.5,247.5 Z"/></g>
<g><path style="opacity:0.957" fill="#6f2333" d="M 194.5,249.5 C 193.833,250.833 192.833,251.833 191.5,252.5C 191.5,250.5 192.5,249.5 194.5,249.5 Z"/></g>
<g><path style="opacity:0.973" fill="#ad3650" d="M 122.5,256.5 C 124.5,256.5 125.5,257.5 125.5,259.5C 124.167,258.833 123.167,257.833 122.5,256.5 Z"/></g>
<g><path style="opacity:0.969" fill="#942e44" d="M 125.5,259.5 C 130.774,263.105 135.441,267.438 139.5,272.5C 134.226,268.895 129.559,264.562 125.5,259.5 Z"/></g>
<g><path style="opacity:0.969" fill="#4e1824" d="M 191.5,252.5 C 185.132,259.869 178.132,266.536 170.5,272.5C 176.842,265.159 183.842,258.492 191.5,252.5 Z"/></g>
<g><path style="opacity:0.961" fill="#672030" d="M 170.5,272.5 C 169.833,273.833 168.833,274.833 167.5,275.5C 167.5,273.5 168.5,272.5 170.5,272.5 Z"/></g>
<g><path style="opacity:0.965" fill="#9b3048" d="M 142.5,275.5 C 146.57,278.06 150.236,281.227 153.5,285C 154.448,285.483 155.448,285.649 156.5,285.5C 155.399,286.598 154.066,286.765 152.5,286C 148.963,282.631 145.629,279.131 142.5,275.5 Z"/></g>
<g><path style="opacity:0.973" fill="#4a1723" d="M 167.5,275.5 C 164.437,279.566 160.771,282.899 156.5,285.5C 159.563,281.434 163.229,278.101 167.5,275.5 Z"/></g>
</svg>
